<svg xmlns="http://www.w3.org/2000/svg" width="600" height="439.738" viewBox="0 0 600 439.738"><path d="M192.746 0h-2.795v176.649h2.795V0zm236.53 0h-2.795v176.649h2.795V0zM118.473 148.998H40.877v-47.506h59.444V73.888H40.877v-46.26h73.617V.022H8.796v176.583h109.677v-27.607zm177.84-43.778h58.44V77.62h-58.44v-49.99h69.384V.021H264.224v176.583h32.088V105.22zM522.397.022v27.606h45.51v96.25c0 19.154-10.693 26.362-22.625 26.362-11.936 0-23.382-6.962-23.382-27.855v-8.208h-31.838v10.197c0 38.055 27.61 55.214 54.726 55.214 27.353 0 55.211-16.662 55.211-55.214V.022h-77.602zM8.916 309.564v43.66h26.81v-6.826H16.849v-36.834H8.916zm36.033-.74H37.75l-2.89 13.469h5.535l4.553-13.47zm28.59.8H65.48l-4.672 8.365h6.271l6.458-8.366zm4.734 26.381c0-8.3-4.858-14.88-13.897-14.88-9.348 0-15.929 6.763-15.929 16.42 0 8.916 6.458 16.416 16.851 16.416 7.81 0 12.607-4.487 12.607-4.487l-3.016-5.598s-3.996 3.445-9.04 3.445c-4.672 0-8.916-2.828-9.407-8.303h21.646s.185-2.09.185-3.013zm-21.585-2.336c.739-4.06 3.507-6.518 7.503-6.518 3.444 0 6.088 2.273 6.211 6.518H56.688zm55.71 15.188l-3.013-5.535s-3.936 3.999-9.222 3.999c-5.967 0-9.78-4.55-9.78-9.84 0-5.349 3.75-9.716 9.531-9.716 4.92 0 8.18 3.382 8.18 3.382l3.445-5.35s-3.876-4.672-12.053-4.672c-10.394 0-17.034 7.502-17.034 16.42 0 9.099 6.64 16.416 17.034 16.416 8.422 0 12.912-5.104 12.912-5.104zm37.997-11.312c0-9.594-7.685-16.42-17.279-16.42-9.534 0-17.22 6.826-17.22 16.42 0 9.653 7.686 16.416 17.28 16.416 9.534 0 17.22-6.763 17.22-16.416zm-26.564 0c0-5.781 4.242-9.78 9.345-9.78 5.044 0 9.285 3.999 9.285 9.78 0 5.84-4.241 9.776-9.285 9.776-5.103 0-9.345-3.936-9.345-9.776zm44.515 15.802v-6.826s-.554.062-1.168.062c-2.03 0-3.199-.862-3.199-4.306v-32.713h-7.748v33.884c0 8.977 5.352 10.085 9.656 10.085 1.291 0 2.459-.186 2.459-.186zm30.006-9.47s-3.995 3.444-9.04 3.444c-4.672 0-8.916-2.828-9.407-8.303h21.646s.185-2.09.185-3.013c0-8.3-4.858-14.88-13.898-14.88-9.347 0-15.928 6.763-15.928 16.42 0 8.916 6.458 16.416 16.851 16.416 7.81 0 12.607-4.487 12.607-4.487l-3.016-5.598zm-10.7-16.726c3.446 0 6.09 2.273 6.213 6.518h-13.714c.739-4.06 3.506-6.518 7.502-6.518zm56.632-3.812c0 .982.06 1.782.06 1.782h-.123s-2.15-3.996-9.04-3.996c-8.3 0-14.203 6.454-14.203 16.42 0 9.713 5.41 16.416 13.898 16.416 7.194 0 9.838-5.35 9.838-5.35h.124s-.124.863-.124 2.031v2.582h7.378v-43.66h-7.808v13.775zm-7.626 24.045c-4.613 0-7.808-3.876-7.808-9.84 0-6.212 3.564-9.716 7.871-9.716 5.226 0 7.808 4.795 7.808 9.653 0 6.95-3.813 9.903-7.871 9.903zm34.49 6.577c5.353 0 9.348-3.259 10.887-6.517h.123s-.123.984-.123 2.213v3.567h7.5v-31.362h-7.808v14.389c0 5.597-3.136 10.578-8.794 10.578-3.876 0-4.858-2.584-4.858-6.395v-18.572h-7.811v20.17c0 8.548 4.184 11.93 10.884 11.93zm60.566-32.836c-6.335 0-9.776 3.872-11.13 6.517h-.123s.123-.985.123-2.153v-3.627h-7.503v31.362h7.812v-14.389c0-1.476.122-2.89.55-4.181 1.172-3.753 4.245-6.398 8.426-6.398 3.998 0 4.98 2.585 4.98 6.398v18.57h7.75v-20.17c0-8.302-3.936-11.929-10.885-11.929zm33.94 0c-9.534 0-17.22 6.826-17.22 16.42 0 9.653 7.686 16.416 17.28 16.416 9.533 0 17.218-6.763 17.218-16.416 0-9.594-7.685-16.42-17.279-16.42zm.06 26.196c-5.105 0-9.346-3.936-9.346-9.776 0-5.781 4.241-9.78 9.345-9.78 5.044 0 9.285 3.999 9.285 9.78 0 5.84-4.24 9.776-9.285 9.776zm44.517-11.07c0 5.597-3.136 10.578-8.794 10.578-3.875 0-4.858-2.584-4.858-6.395v-18.572h-7.811v20.17c0 8.548 4.184 11.93 10.887 11.93 5.35 0 9.345-3.26 10.884-6.518h.123s-.123.984-.123 2.213v3.567h7.5v-31.362h-7.808v14.389zm29.207 5.044c-.618 1.844-1.046 4.734-1.109 4.734h-.122c-.06 0-.492-2.89-1.106-4.734l-6.52-19.433h-8.24l11.376 31.362h9.225l11.253-31.362h-8.24l-6.517 19.433zm32.833-20.17c-9.348 0-15.928 6.763-15.928 16.42 0 8.916 6.457 16.416 16.85 16.416 7.809 0 12.607-4.487 12.607-4.487l-3.016-5.598s-3.996 3.445-9.039 3.445c-4.673 0-8.917-2.828-9.408-8.303h21.646s.185-2.09.185-3.013c0-8.3-4.858-14.88-13.897-14.88zm-7.689 12.544c.74-4.06 3.507-6.518 7.503-6.518 3.445 0 6.089 2.273 6.212 6.518h-13.715zm39.72-12.544c-7.44 0-12.298 3.872-12.298 3.872l2.95 5.596s4.121-3.014 8.611-3.014c3.444 0 6.026 1.417 6.026 5.536v.43h-1.045c-5.104 0-18.573.677-18.573 10.64 0 6.272 5.044 9.776 10.639 9.776 7.134 0 9.593-5.533 9.533-5.533h.123s-.123.983-.123 2.214v2.582h7.195v-19.615c0-7.935-4.798-12.484-13.038-12.484zm5.35 18.51c0 3.813-2.95 8.24-7.072 8.24-3.196 0-4.736-1.968-4.736-4.06 0-4.366 6.458-4.92 10.456-4.92h1.351v.74zm36.831-3.384c0 5.597-3.136 10.578-8.793 10.578-3.876 0-4.858-2.584-4.858-6.395v-18.572h-7.812v20.17c0 8.548 4.184 11.93 10.888 11.93 5.349 0 9.344-3.26 10.884-6.518h.123s-.123.984-.123 2.213v3.567h7.5v-31.362h-7.809v14.389zm-531.05 47.097H7.687v6.949h7.748v-6.95zm-7.747 43.969c0 5.104-4.12 5.78-6.335 5.78-.797 0-1.351-.122-1.351-.122v6.577s.922.186 2.4.186c4.303 0 13.097-1.291 13.097-11.807v-32.285H7.686v31.67zm31.3-32.408c-9.534 0-17.22 6.826-17.22 16.42 0 9.653 7.686 16.416 17.28 16.416 9.533 0 17.218-6.763 17.218-16.417 0-9.593-7.685-16.42-17.279-16.42zm.06 26.196c-5.105 0-9.346-3.936-9.346-9.777 0-5.78 4.241-9.779 9.345-9.779 5.044 0 9.288 3.999 9.288 9.78 0 5.84-4.244 9.776-9.288 9.776zm44.517-11.07c0 5.598-3.136 10.579-8.794 10.579-3.876 0-4.858-2.585-4.858-6.396v-18.572H62.1v20.17c0 8.548 4.184 11.93 10.884 11.93 5.352 0 9.348-3.26 10.887-6.519h.123s-.123.986-.123 2.214v3.567h7.5v-31.362h-7.808v14.389zm23.914-6.764h-.123s.123-1.045.123-2.213v-5.412h-7.503v31.362h7.812v-12.42c0-1.846.182-3.568.674-5.105 1.476-4.675 5.229-6.58 8.548-6.58 1.045 0 1.844.123 1.844.123v-7.689s-.676-.123-1.413-.123c-4.795 0-8.548 3.567-9.962 8.057zm35.295-8.362c-6.335 0-9.776 3.872-11.13 6.518h-.122s.122-.986.122-2.154v-3.627h-7.502v31.362h7.81v-14.389c0-1.476.124-2.89.552-4.18 1.17-3.754 4.244-6.399 8.425-6.399 3.999 0 4.981 2.585 4.981 6.398v18.57h7.749v-20.17c0-8.302-3.936-11.93-10.885-11.93zm30.741 0c-7.44 0-12.298 3.872-12.298 3.872l2.95 5.596s4.121-3.014 8.61-3.014c3.442 0 6.027 1.418 6.027 5.536v.43h-1.046c-5.103 0-18.572.678-18.572 10.64 0 6.272 5.044 9.776 10.639 9.776 7.134 0 9.593-5.532 9.533-5.532h.123s-.123.982-.123 2.213v2.582h7.195v-19.616c0-7.933-4.799-12.483-13.038-12.483zm5.35 18.51c0 3.813-2.951 8.24-7.072 8.24-3.197 0-4.736-1.968-4.736-4.059 0-4.367 6.458-4.92 10.456-4.92h1.351v.74zm23.116 2.642v-32.713h-7.748v33.884c0 8.977 5.352 10.085 9.656 10.085 1.291 0 2.46-.186 2.46-.186v-6.826s-.555.063-1.169.063c-2.028 0-3.199-.863-3.199-4.307zm17.894-32.713h-7.749v6.949h7.749v-6.95zm-7.749 43.66h7.811v-31.362h-7.81v31.362zm22.69-22.631c0-1.966 1.967-2.828 3.997-2.828 4.796 0 7.686 2.705 7.686 2.705l2.89-5.778s-3.44-3.567-10.516-3.567c-6.763 0-11.99 3.381-11.99 9.223 0 10.086 15.252 9.47 15.252 14.145 0 1.843-1.908 2.828-4.121 2.828-5.105 0-8.549-3.445-8.549-3.445l-3.567 5.476s4.367 4.61 12.179 4.61c7.44 0 11.99-4.182 11.99-9.409 0-10.084-15.252-9.53-15.252-13.96zm59.214-9.468c-4.921 0-8.98 3.073-10.701 6.454h-.124c-1.29-4.24-4.364-6.454-9.162-6.454-4.918 0-8.67 3.442-10.208 6.518h-.122s.122-.986.122-2.154v-3.627h-7.502v31.362h7.811v-13.775c0-1.414.06-2.827.368-3.998.983-3.996 3.628-7.195 7.686-7.195 3.69 0 4.244 2.89 4.244 6.273v18.695h7.809v-13.775c0-1.476.063-2.827.371-4.058.922-3.936 3.564-7.135 7.563-7.135 3.628 0 4.304 2.708 4.304 6.273v18.695h7.811v-20.17c0-8.239-3.752-11.93-10.27-11.93zm32.154 0c-9.348 0-15.929 6.763-15.929 16.42 0 8.916 6.458 16.416 16.851 16.416 7.81 0 12.607-4.487 12.607-4.487l-3.016-5.598s-3.995 3.445-9.04 3.445c-4.672 0-8.916-2.828-9.407-8.303h21.646s.186-2.09.186-3.013c0-8.3-4.859-14.88-13.898-14.88zm-7.688 12.544c.74-4.059 3.507-6.518 7.502-6.518 3.445 0 6.09 2.274 6.212 6.518h-13.714z" fill="#00858c"/></svg>